<svg width="512" height="512" xmlns="http://www.w3.org/2000/svg">
 <g>
  <path transform="rotate(90 256 256)" fill="#252525" id="svg_1" stroke-dasharray=" none" stroke-miterlimit="4" stroke-width="30" stroke="#ff7f00" d="m348.66105,416.49367c-22.76489,13.14332 -162.55722,13.14331 -185.32211,-0.00001c-22.76489,-13.14332 -92.66105,-134.20703 -92.66105,-160.49366c0,-26.28664 69.89617,-147.35034 92.66106,-160.49366c22.7649,-13.14331 162.55722,-13.1433 185.32212,0.00001c22.76489,13.14332 92.66105,134.20703 92.66105,160.49367c0,26.28663 -69.89617,147.35033 -92.66107,160.49365z"/>
  <path stroke-width="0" stroke="null" fill="#ff7f00" id="svg_6" d="m245.42007,334.55594l0,-72.47247l-63.47953,-36.76523l0,72.47247l63.47953,36.76523zm21.15984,0l63.47953,-36.76523l0,-72.47247l-63.47953,36.76523l0,72.47247zm-21.15984,24.33382l-74.05946,-42.58419q-5.02546,-2.90948 -7.80269,-7.67044t-2.77723,-10.57992l0,-84.11038q0,-5.81896 2.77723,-10.57992t7.80269,-7.67044l74.05946,-42.58419q5.02546,-2.90948 10.57992,-2.90948t10.57992,2.90948l74.05946,42.58419q5.02546,2.90948 7.80269,7.67044t2.77723,10.57992l0,84.11038q0,5.81896 -2.77723,10.57992t-7.80269,7.67044l-74.05946,42.58419q-5.02546,2.90948 -10.57992,2.90948t-10.57992,-2.90948zm52.89961,-139.65498l20.36635,-11.63791l-62.68604,-36.23623l-20.63085,11.90241l62.95054,35.97174zm-42.31969,24.59832l20.63085,-11.90241l-62.68604,-36.23623l-20.63085,11.90241l62.68604,36.23623z"/>
 </g>
</svg>